<?xml version="1.0" encoding="iso-8859-1"?>
<!-- Generator: Adobe Illustrator 16.0.0, SVG Export Plug-In . SVG Version: 6.00 Build 0)  -->
<!DOCTYPE svg PUBLIC "-//W3C//DTD SVG 1.1 Tiny//EN" "http://www.w3.org/Graphics/SVG/1.1/DTD/svg11-tiny.dtd">
<svg version="1.1" baseProfile="tiny" id="&#x421;&#x43B;&#x43E;&#x439;_1"
	 xmlns="http://www.w3.org/2000/svg" xmlns:xlink="http://www.w3.org/1999/xlink" x="0px" y="0px" width="12px" height="12px"
	 viewBox="0 0 12 12" xml:space="preserve">
<path fill="#196CEB" d="M10,1c0.551,0,1,0.448,1,1v8c0,0.552-0.449,1-1,1H2c-0.551,0-1-0.448-1-1V2c0-0.552,0.449-1,1-1H10 M10,0H2
	C0.9,0,0,0.9,0,2v8c0,1.1,0.9,2,2,2h8c1.1,0,2-0.9,2-2V2C12,0.9,11.1,0,10,0"/>
</svg>
