<?xml version="1.0" encoding="iso-8859-1"?>
<!-- Generator: Adobe Illustrator 16.0.0, SVG Export Plug-In . SVG Version: 6.00 Build 0)  -->
<!DOCTYPE svg PUBLIC "-//W3C//DTD SVG 1.1 Tiny//EN" "http://www.w3.org/Graphics/SVG/1.1/DTD/svg11-tiny.dtd">
<svg version="1.1" baseProfile="tiny" id="&#x421;&#x43B;&#x43E;&#x439;_1"
	 xmlns="http://www.w3.org/2000/svg" xmlns:xlink="http://www.w3.org/1999/xlink" x="0px" y="0px" width="13px" height="13px"
	 viewBox="0 0 13 13" xml:space="preserve">
<path d="M7.914,6.5l4.793-4.793c0.391-0.391,0.391-1.023,0-1.414s-1.023-0.391-1.414,0L6.5,5.086L1.707,0.293
	c-0.391-0.391-1.023-0.391-1.414,0s-0.391,1.023,0,1.414L5.086,6.5l-4.793,4.793c-0.391,0.391-0.391,1.023,0,1.414
	C0.488,12.902,0.744,13,1,13s0.512-0.098,0.707-0.293L6.5,7.914l4.793,4.793C11.488,12.902,11.744,13,12,13s0.512-0.098,0.707-0.293
	c0.391-0.391,0.391-1.023,0-1.414L7.914,6.5z"/>
</svg>
