<?xml version="1.0" encoding="iso-8859-1"?>
<!-- Generator: Adobe Illustrator 16.0.0, SVG Export Plug-In . SVG Version: 6.00 Build 0)  -->
<!DOCTYPE svg PUBLIC "-//W3C//DTD SVG 1.1 Tiny//EN" "http://www.w3.org/Graphics/SVG/1.1/DTD/svg11-tiny.dtd">
<svg version="1.1" baseProfile="tiny" id="&#x421;&#x43B;&#x43E;&#x439;_1"
	 xmlns="http://www.w3.org/2000/svg" xmlns:xlink="http://www.w3.org/1999/xlink" x="0px" y="0px" width="22px" height="22px"
	 viewBox="0 0 22 22" xml:space="preserve">
<g>
	<path fill="#00AC9A" d="M22,11c0,6.075-4.925,11-11,11S0,17.075,0,11S4.925,0,11,0S22,4.925,22,11"/>
	<g>
		<path fill="#FFFFFF" d="M11,17c-0.552,0-1-0.448-1-1v-6c0-0.552,0.448-1,1-1s1,0.448,1,1v6C12,16.552,11.552,17,11,17z"/>
	</g>
	<g>
		<path fill="#FFFFFF" d="M12.5,5.5C12.5,6.328,11.828,7,11,7S9.5,6.328,9.5,5.5S10.172,4,11,4S12.5,4.672,12.5,5.5"/>
	</g>
</g>
</svg>
